<svg xmlns="http://www.w3.org/2000/svg" width="169.872" height="80.707" viewBox="0 0 169.872 80.707">
  <g id="Group_60342" data-name="Group 60342" transform="translate(-1510.125 -75.1)">
    <g id="txt" transform="translate(1510.125 75.1)">
      <path id="Path_124715" data-name="Path 124715" d="M115.465,69.406a2.307,2.307,0,0,0,1.644-.622,2.148,2.148,0,0,0,.641-1.584,2.2,2.2,0,0,0-.641-1.625,2.309,2.309,0,0,0-1.644-.622,2.167,2.167,0,0,0-1.565.622,2.241,2.241,0,0,0-.642,1.625,2.159,2.159,0,0,0,2.207,2.207" transform="translate(-94.807 -54.371)" fill="#1c614e"/>
      <path id="Path_124716" data-name="Path 124716" d="M309.409,69.406a2.307,2.307,0,0,0,1.645-.622,2.148,2.148,0,0,0,.641-1.584,2.2,2.2,0,0,0-.641-1.625,2.309,2.309,0,0,0-1.645-.622,2.169,2.169,0,0,0-1.565.622,2.25,2.25,0,0,0-.64,1.625,2.157,2.157,0,0,0,2.206,2.207" transform="translate(-257.154 -54.371)" fill="#1c614e"/>
      <path id="Path_124717" data-name="Path 124717" d="M338.715,69.406a2.317,2.317,0,0,0,1.647-.622A2.158,2.158,0,0,0,341,67.2a2.209,2.209,0,0,0-.642-1.625,2.319,2.319,0,0,0-1.647-.622,2.164,2.164,0,0,0-1.564.622,2.242,2.242,0,0,0-.643,1.625,2.161,2.161,0,0,0,2.207,2.207" transform="translate(-281.686 -54.371)" fill="#1c614e"/>
      <path id="Path_124718" data-name="Path 124718" d="M429.148,112.765c-.591.366-2.589,1.374-8.173,2.58a10.869,10.869,0,0,0-5.537,2.868,10.08,10.08,0,0,0-2.869,7.462v9.248a.156.156,0,0,0,.157.157h12.16a4.445,4.445,0,0,1-4.447,4.446h-7.385a.114.114,0,0,0-.1.157l1.685,4.124a.337.337,0,0,0,.316.211l5.511-.01a8.917,8.917,0,0,0,8.9-8.916V112.887a.14.14,0,0,0-.213-.122m-4.282,17.843h-7.8v-4.832a5.669,5.669,0,0,1,1.826-4.493,5.881,5.881,0,0,1,1.245-.808,9,9,0,0,1,2.206-.746l2.528-.532Z" transform="translate(-345.355 -94.377)" fill="#1c614e"/>
      <path id="Path_124719" data-name="Path 124719" d="M235.16,72.732c-.589.367-2.59,1.374-8.174,2.58a10.884,10.884,0,0,0-5.537,2.868,10.1,10.1,0,0,0-2.869,7.462v4.932h-7.826V65.036a.116.116,0,0,0-.155-.109l-4.241,1.543a.117.117,0,0,0-.076.109V94.914a.134.134,0,0,0,.134.133h28.82a.138.138,0,0,0,.139-.136V72.854a.141.141,0,0,0-.214-.122m-4.28,17.843h-7.8V85.742a5.669,5.669,0,0,1,1.827-4.493,5.882,5.882,0,0,1,1.245-.808,9.012,9.012,0,0,1,2.2-.746l2.529-.532Z" transform="translate(-172.676 -54.344)" fill="#1c614e"/>
      <path id="Path_124720" data-name="Path 124720" d="M28.889,112.765c-.591.367-2.591,1.374-8.171,2.58a10.877,10.877,0,0,0-5.539,2.868,10.089,10.089,0,0,0-2.868,7.462v4.932H8.365a4.2,4.2,0,0,1-2.165-.9,4.833,4.833,0,0,1-1.665-4.031v-8.357a.107.107,0,0,0-.136-.1L.076,118.424a.1.1,0,0,0-.076.1v7.892a8.4,8.4,0,0,0,2.688,6.6,7.81,7.81,0,0,0,4.592,2.066H28.968a.133.133,0,0,0,.132-.133v-22.06a.139.139,0,0,0-.211-.122m-4.282,17.843H16.8v-4.832a5.668,5.668,0,0,1,1.825-4.493,5.927,5.927,0,0,1,1.246-.808,8.975,8.975,0,0,1,2.2-.746l2.528-.532Z" transform="translate(0 -94.377)" fill="#1c614e"/>
      <path id="Path_124721" data-name="Path 124721" d="M547.457,71.29l-4.238,1.544a.115.115,0,0,0-.078.109v27.3a.135.135,0,0,0,.136.136h4.2a.136.136,0,0,0,.136-.136V71.4a.117.117,0,0,0-.157-.11" transform="translate(-454.654 -59.67)" fill="#1c614e"/>
      <path id="Path_124722" data-name="Path 124722" d="M543.268,54.331l4.286-1.644a.093.093,0,0,0,.06-.087V50.921a.093.093,0,0,0-.127-.088L543.2,52.477a.1.1,0,0,0-.06.089v1.678a.094.094,0,0,0,.127.088" transform="translate(-454.654 -42.547)" fill="#1c614e"/>
      <path id="Path_124723" data-name="Path 124723" d="M547.614,26.863v1.709a.224.224,0,0,1-.094.181,6.249,6.249,0,0,1-1.62.812c-1.512.413-1.224,2.176-.2,1.868.99-.3-1.739,1.906-1.7,1.878a5.776,5.776,0,0,0,.1-.806,2.292,2.292,0,0,1-.957-1.681c0-1.023.552-2.137,2.47-2.77a3.536,3.536,0,0,0,1.9-1.222.056.056,0,0,1,.1.033" transform="translate(-454.654 -22.438)" fill="#1c614e"/>
      <path id="Path_124724" data-name="Path 124724" d="M12.184,338.583h6.36l-3.165-8.65Zm8.106,5.07-1.166-3.3H11.633l-1.193,3.3H7.508l5.336-13.273a5.19,5.19,0,0,1,2.6-2.672,4.251,4.251,0,0,0,1.042-.809l6.733,16.753Z" transform="translate(-6.285 -273.643)" fill="#1c614e"/>
      <path id="Path_124725" data-name="Path 124725" d="M134.04,347.38,130.2,334.761l-3.835,12.619H123.85l-3.78-13.456a2.025,2.025,0,0,1,1.95-2.572l3.223,13.507,3.5-12.047a2.025,2.025,0,0,1,1.944-1.46h.556l3.924,13.507,2.854-11.952a2.023,2.023,0,0,1,1.969-1.555h1.07l-4.5,16.028Z" transform="translate(-100.443 -277.369)" fill="#1c614e"/>
      <path id="Path_124726" data-name="Path 124726" d="M502.117,347.38V335.505a4.153,4.153,0,0,1,4.152-4.153h6.39a2.164,2.164,0,0,1-2.133,1.815h-5.7v5.326h6.617v1.816h-6.617v7.071Z" transform="translate(-420.313 -277.369)" fill="#1c614e"/>
      <path id="Path_124727" data-name="Path 124727" d="M280.63,326.472a3.454,3.454,0,0,0-3.06,1.284,6.074,6.074,0,0,0-.737,3.39V334.4a5.4,5.4,0,0,0,1,3.731,3.68,3.68,0,0,0,2.8.943,3.457,3.457,0,0,0,3.059-1.284,6.086,6.086,0,0,0,.736-3.39V327.44a2.268,2.268,0,0,1,.327-1.192,5.76,5.76,0,0,1-1.376.224Zm0,14.394a9.788,9.788,0,0,1-3.22-.454,4.936,4.936,0,0,1-2.1-1.418,4.247,4.247,0,0,1-.9-1.685,10.055,10.055,0,0,1-.286-2.649v-3.936a9.8,9.8,0,0,1,.333-2.837,4.254,4.254,0,0,1,1.093-1.778,5.381,5.381,0,0,1,2.057-1.2,10.046,10.046,0,0,1,3.022-.389c3.887,0,5.683-.625,6.5-1.139v11.28a9.8,9.8,0,0,1-.333,2.837,4.252,4.252,0,0,1-1.093,1.778,5.391,5.391,0,0,1-2.044,1.2,10.025,10.025,0,0,1-3.032.387" transform="translate(-229.465 -270.695)" fill="#1c614e"/>
      <path id="Path_124728" data-name="Path 124728" d="M384.942,338.583H391.3l-3.164-8.65Zm8.105,5.07-1.167-3.3h-7.489l-1.194,3.3h-2.931l5.333-13.273a5.194,5.194,0,0,1,2.6-2.672,4.344,4.344,0,0,0,1.041-.809l6.732,16.753Z" transform="translate(-318.314 -273.643)" fill="#1c614e"/>
      <rect id="Rectangle_14087" data-name="Rectangle 14087" width="1.796" height="6.889" transform="matrix(0.707, -0.708, 0.708, 0.707, 51.285, 67.064)" fill="#1c614e"/>
    </g>
    <g id="art" transform="translate(1510.125 75.1)">
      <path id="base" d="M728.485,8.677C721.282,6,715.354,2.823,713.426,0h0c-1.928,2.823-7.854,6-15.056,8.677-8.487,3.153-14.141,7.842-14.141,20.478v22.4c0,12.636,5.654,17.324,14.141,20.477,7.2,2.674,13.128,5.855,15.056,8.677h0c1.928-2.822,7.856-6,15.058-8.677,8.486-3.153,14.141-7.841,14.141-20.477v-22.4c0-12.636-5.655-17.325-14.141-20.478" transform="translate(-572.754)" fill="#1c614e"/>
      <path id="border" d="M733.837,103.54c-3.159-2.326-7.772-4.618-13.795-6.849-7.424-2.753-11.449-6.209-11.449-16.573V57.292c0-10.365,4.025-13.821,11.449-16.573,6.023-2.231,10.635-4.524,13.795-6.849,3.866,2.829,9.283,5.188,13.764,6.85,7.426,2.752,11.45,6.208,11.45,16.573V80.118c0,10.365-4.025,13.821-11.45,16.573C743.12,98.352,737.7,100.712,733.837,103.54Z" transform="translate(-593.15 -28.352)" fill="none" stroke="#d6bd81" stroke-width="1"/>
      <g id="inner">
        <path id="Path_124731" data-name="Path 124731" d="M904.4,347.765a.937.937,0,0,0-.418-.084v0a.929.929,0,0,0-.246.04c-.019.006-.034.014-.052.021a.914.914,0,0,0-.153.067s-.005,0-.006,0h0c-.032.019-.065.05-.1.075l-.048.027c-.008.008-.013.02-.022.028a.366.366,0,0,0-.039.031l0,.014a.923.923,0,0,0-.162.207,1.726,1.726,0,0,1-.976.14,10.075,10.075,0,0,1-3.214-.856c-.386-.158-.788-.337-1.2-.535-.006.023-.783.785-1,1.03a2.113,2.113,0,0,0-.514.882l.367.18a14.156,14.156,0,0,0,5.706,1.668,4.4,4.4,0,0,0,1.012-.108,2.2,2.2,0,0,0,1.586-1.169,1.225,1.225,0,0,0-.528-1.659" transform="translate(-750.24 -290.418)" fill="#d6bd81"/>
        <path id="Path_124732" data-name="Path 124732" d="M783.927,346.943q-.622.3-1.2.535a10.076,10.076,0,0,1-3.214.856,1.722,1.722,0,0,1-.976-.141.931.931,0,0,0-.164-.207l.005-.015c-.014-.014-.028-.019-.04-.031s-.014-.02-.023-.028-.02-.013-.048-.027-.065-.056-.1-.075h0l-.006,0a.923.923,0,0,0-.154-.067c-.017-.006-.034-.016-.051-.021a.937.937,0,0,0-.247-.04v0a.922.922,0,0,0-.416.083,1.229,1.229,0,0,0-.531,1.659,2.212,2.212,0,0,0,1.587,1.169,4.444,4.444,0,0,0,1.015.109,14.145,14.145,0,0,0,5.7-1.668c.092-.043.368-.18.368-.18a2.084,2.084,0,0,0-.514-.882c-.213-.246-.989-1.007-1-1.03" transform="translate(-650.111 -290.42)" fill="#d6bd81"/>
        <path id="Path_124733" data-name="Path 124733" d="M772.8,261.479l-.046-.018c-.083-.025-.423-.136-.729-.232a8.537,8.537,0,0,0-2.561-.343c-.312,0-.63.012-.952.032a16.574,16.574,0,0,0-5.431,1.365,34.432,34.432,0,0,0-7.063,4.454c-1.839,1.389-3.512,2.724-5.082,3.9-1.571-1.173-3.246-2.508-5.082-3.9a34.465,34.465,0,0,0-7.063-4.454,16.582,16.582,0,0,0-5.431-1.365c-.322-.02-.64-.032-.952-.032a8.546,8.546,0,0,0-2.562.343c-.307.1-.645.207-.728.232l-.048.018a.052.052,0,0,0,.024.1,21.574,21.574,0,0,1,7.11,1.929,30.29,30.29,0,0,1,5.306,3.085,33.337,33.337,0,0,1,2.9,2.159q2.279,1.887,4.359,3.423c-.136.091-.275.187-.41.274-1.134.734-2.206,1.365-3.2,1.887-1.208-1.308-1.005-2.152-1.005-2.152a.81.81,0,0,0-.895-.125c-.727.586.009,1.472.938,2.4.076.076.53.53.535.527a10.372,10.372,0,0,1,.955,1.09,1.466,1.466,0,0,1,.1.159,2.014,2.014,0,0,1-.033,2.221c.6.681.943.378.943.378.676-.409.565-1.475.008-2.494a48.908,48.908,0,0,0,4.237-2.624,48.514,48.514,0,0,0,4.237,2.624c-.557,1.019-.668,2.084.005,2.494,0,0,.35.3.946-.378a2.015,2.015,0,0,1-.033-2.221,1.763,1.763,0,0,1,.094-.159,10.535,10.535,0,0,1,.956-1.09c.005,0,.458-.451.533-.527.93-.927,1.666-1.813.939-2.4a.812.812,0,0,0-.9.125s.2.845-1.006,2.152c-1-.523-2.066-1.153-3.2-1.887-.136-.087-.275-.183-.41-.274q2.075-1.536,4.357-3.423a33.681,33.681,0,0,1,2.9-2.159,30.286,30.286,0,0,1,5.306-3.085,21.572,21.572,0,0,1,7.11-1.929.051.051,0,0,0,.022-.1" transform="translate(-610.262 -218.383)" fill="#d6bd81"/>
        <path id="Path_124734" data-name="Path 124734" d="M812.473,113.287a.056.056,0,0,1,.011-.112h.008a9.606,9.606,0,0,1,6.252,2.087.063.063,0,0,0,.1-.071,7.065,7.065,0,0,0-6.7-4.072c-.21,0-.415.013-.62.031a.057.057,0,0,1-.045-.1,5.945,5.945,0,0,1,3.06-1.034.056.056,0,0,0,.028-.1,5.313,5.313,0,0,0-2.683-.711,5.168,5.168,0,0,0-2.752.792l-.093-.039a6.079,6.079,0,0,0-.615-1.647c-.018-.034-.055-.095-.085-.145a.06.06,0,0,0-.053-.03.066.066,0,0,0-.055.03l-.085.145a6.121,6.121,0,0,0-.615,1.647l-.093.039a5.16,5.16,0,0,0-2.751-.792,5.316,5.316,0,0,0-2.683.711.056.056,0,0,0,.028.1,5.953,5.953,0,0,1,3.06,1.034.057.057,0,0,1-.046.1c-.2-.018-.41-.029-.62-.031a7.065,7.065,0,0,0-6.695,4.072.063.063,0,0,0,.1.071,9.607,9.607,0,0,1,6.253-2.087h.005a.056.056,0,0,1,.013.112c-3.285.664-5.863,2.838-6.551,5.628a.065.065,0,0,0,.108.062,13.061,13.061,0,0,1,5.142-2.982.061.061,0,0,1,.059.1,9.646,9.646,0,0,0-3.288,7.012c0,.1,0,.2,0,.3,0,.059.094.087.121.035a12.927,12.927,0,0,1,3.614-4.345.065.065,0,0,1,.1.072,11.644,11.644,0,0,0-.719,3.916,12.035,12.035,0,0,0,.442,3.345.063.063,0,0,0,.122-.005,14.832,14.832,0,0,1,2.767-5.973c.037-.053.13-.014.113.047a9.641,9.641,0,0,0-.235,6.251.065.065,0,0,0,.123-.016c.038-.566,1.879-5.878,2.264-5.878s2.226,5.312,2.264,5.878a.065.065,0,0,0,.123.016,9.628,9.628,0,0,0-.238-6.251c-.015-.061.078-.1.116-.047a14.866,14.866,0,0,1,2.767,5.973.063.063,0,0,0,.122.005,11.99,11.99,0,0,0,.439-3.345,11.649,11.649,0,0,0-.715-3.916.064.064,0,0,1,.1-.072,12.97,12.97,0,0,1,3.612,4.345c.025.052.121.025.121-.035,0-.1,0-.2,0-.3a9.643,9.643,0,0,0-3.289-7.012.062.062,0,0,1,.061-.1,13.066,13.066,0,0,1,5.141,2.982.065.065,0,0,0,.108-.062c-.689-2.789-3.266-4.964-6.551-5.628" transform="translate(-667.617 -90.514)" fill="#d6bd81"/>
        <path id="Path_124735" data-name="Path 124735" d="M855.383,164.177h0s-1.571,13.23-1.571,18.649,1.571,5.724,1.571,5.724,1.568-.305,1.568-5.724-1.568-18.649-1.568-18.649" transform="translate(-714.711 -137.43)" fill="#d6bd81"/>
      </g>
    </g>
  </g>
</svg>
